<svg xmlns="http://www.w3.org/2000/svg" xmlns:xlink="http://www.w3.org/1999/xlink" width="1050" zoomAndPan="magnify" viewBox="0 0 787.5 225" height="300" preserveAspectRatio="xMidYMid meet" version="1.0"><defs><g/><clipPath id="09a89fbf54"><path d="M 0 0.0703125 L 787 0.0703125 L 787 224.925781 L 0 224.925781 Z M 0 0.0703125 " clip-rule="nonzero"/></clipPath><clipPath id="955d528c3a"><path d="M 117 0.0703125 L 639 0.0703125 L 639 224.925781 L 117 224.925781 Z M 117 0.0703125 " clip-rule="nonzero"/></clipPath><clipPath id="74330c7b25"><rect x="0" width="522" y="0" height="225"/></clipPath><clipPath id="4f718bd993"><path d="M 110.648438 57.199219 L 303 57.199219 L 303 224.925781 L 110.648438 224.925781 Z M 110.648438 57.199219 " clip-rule="nonzero"/></clipPath></defs><g clip-path="url(#09a89fbf54)"><path fill="#ffffff" d="M 0 0.0703125 L 787 0.0703125 L 787 224.929688 L 0 224.929688 Z M 0 0.0703125 " fill-opacity="1" fill-rule="nonzero"/><path fill="#ffffff" d="M 0 0.0703125 L 787 0.0703125 L 787 224.929688 L 0 224.929688 Z M 0 0.0703125 " fill-opacity="1" fill-rule="nonzero"/></g><g clip-path="url(#955d528c3a)"><g transform="matrix(1, 0, 0, 1, 117, -0.000000000000004038)"><g clip-path="url(#74330c7b25)"><g fill="#000000" fill-opacity="1"><g transform="translate(2.73968, 218.370629)"><g><path d="M 23.859375 -15.953125 C 11.804688 -29.097656 5.78125 -45.210938 5.78125 -64.296875 C 5.78125 -83.390625 11.804688 -99.550781 23.859375 -112.78125 C 35.921875 -126.007812 51.242188 -132.625 69.828125 -132.625 C 86.898438 -132.625 100.960938 -127.265625 112.015625 -116.546875 L 112.015625 -128.84375 L 156.484375 -128.84375 L 156.484375 0 L 112.53125 0 L 112.53125 -14.5625 L 112.015625 -14.5625 C 100.960938 -2.34375 86.898438 3.765625 69.828125 3.765625 C 51.242188 3.765625 35.921875 -2.804688 23.859375 -15.953125 Z M 61.65625 -86.140625 C 55.882812 -80.453125 53 -73.171875 53 -64.296875 C 53 -55.421875 55.757812 -48.175781 61.28125 -42.5625 C 66.8125 -36.957031 74.097656 -34.15625 83.140625 -34.15625 C 91.847656 -34.15625 99.003906 -37 104.609375 -42.6875 C 110.222656 -48.382812 113.03125 -55.585938 113.03125 -64.296875 C 113.03125 -73.171875 110.140625 -80.453125 104.359375 -86.140625 C 98.585938 -91.835938 91.515625 -94.6875 83.140625 -94.6875 C 74.597656 -94.6875 67.4375 -91.835938 61.65625 -86.140625 Z M 61.65625 -86.140625 "/></g></g></g><g fill="#000000" fill-opacity="1"><g transform="translate(154.693922, 218.370629)"><g><path d="M 19.328125 -200.6875 C 24.523438 -205.875 30.722656 -208.46875 37.921875 -208.46875 C 45.128906 -208.46875 51.328125 -205.875 56.515625 -200.6875 C 61.703125 -195.5 64.296875 -189.300781 64.296875 -182.09375 C 64.296875 -174.894531 61.703125 -168.695312 56.515625 -163.5 C 51.328125 -158.3125 45.128906 -155.71875 37.921875 -155.71875 C 30.722656 -155.71875 24.523438 -158.3125 19.328125 -163.5 C 14.140625 -168.695312 11.546875 -174.894531 11.546875 -182.09375 C 11.546875 -189.300781 14.140625 -195.5 19.328125 -200.6875 Z M 15.0625 -128.84375 L 15.0625 0 L 59.53125 0 L 59.53125 -128.84375 Z M 15.0625 -128.84375 "/></g></g></g><g fill="#000000" fill-opacity="1"><g transform="translate(210.953261, 218.370629)"><g><path d="M 23.859375 -15.953125 C 11.804688 -29.097656 5.78125 -45.210938 5.78125 -64.296875 C 5.78125 -83.390625 11.804688 -99.550781 23.859375 -112.78125 C 35.921875 -126.007812 51.242188 -132.625 69.828125 -132.625 C 86.898438 -132.625 100.960938 -127.265625 112.015625 -116.546875 L 112.015625 -216 L 156.484375 -216 L 156.484375 0 L 112.53125 0 L 112.53125 -14.5625 L 112.015625 -14.5625 C 100.960938 -2.34375 86.898438 3.765625 69.828125 3.765625 C 51.242188 3.765625 35.921875 -2.804688 23.859375 -15.953125 Z M 61.65625 -86.140625 C 55.882812 -80.453125 53 -73.171875 53 -64.296875 C 53 -55.421875 55.757812 -48.175781 61.28125 -42.5625 C 66.8125 -36.957031 74.097656 -34.15625 83.140625 -34.15625 C 91.847656 -34.15625 99.003906 -37 104.609375 -42.6875 C 110.222656 -48.382812 113.03125 -55.585938 113.03125 -64.296875 C 113.03125 -73.171875 110.140625 -80.453125 104.359375 -86.140625 C 98.585938 -91.835938 91.515625 -94.6875 83.140625 -94.6875 C 74.597656 -94.6875 67.4375 -91.835938 61.65625 -86.140625 Z M 61.65625 -86.140625 "/></g></g></g><g fill="#000000" fill-opacity="1"><g transform="translate(362.907503, 218.370629)"><g><path d="M 23.859375 -15.953125 C 11.804688 -29.097656 5.78125 -45.210938 5.78125 -64.296875 C 5.78125 -83.390625 11.804688 -99.550781 23.859375 -112.78125 C 35.921875 -126.007812 51.242188 -132.625 69.828125 -132.625 C 86.898438 -132.625 100.960938 -127.265625 112.015625 -116.546875 L 112.015625 -128.84375 L 156.484375 -128.84375 L 156.484375 0 L 112.53125 0 L 112.53125 -14.5625 L 112.015625 -14.5625 C 100.960938 -2.34375 86.898438 3.765625 69.828125 3.765625 C 51.242188 3.765625 35.921875 -2.804688 23.859375 -15.953125 Z M 61.65625 -86.140625 C 55.882812 -80.453125 53 -73.171875 53 -64.296875 C 53 -55.421875 55.757812 -48.175781 61.28125 -42.5625 C 66.8125 -36.957031 74.097656 -34.15625 83.140625 -34.15625 C 91.847656 -34.15625 99.003906 -37 104.609375 -42.6875 C 110.222656 -48.382812 113.03125 -55.585938 113.03125 -64.296875 C 113.03125 -73.171875 110.140625 -80.453125 104.359375 -86.140625 C 98.585938 -91.835938 91.515625 -94.6875 83.140625 -94.6875 C 74.597656 -94.6875 67.4375 -91.835938 61.65625 -86.140625 Z M 61.65625 -86.140625 "/></g></g></g></g></g></g><g clip-path="url(#4f718bd993)"><path fill="#ffffff" d="M 302.945312 154.414062 L 274.585938 154.414062 C 226.039062 143.910156 215.242188 133.074219 204.738281 84.457031 L 204.738281 57.203125 L 201.152344 57.203125 L 201.152344 84.742188 C 190.664062 133.121094 179.816406 143.929688 131.363281 154.414062 L 110.675781 154.414062 L 110.675781 158.003906 L 131.363281 158.003906 C 179.816406 168.488281 190.664062 179.296875 201.152344 227.675781 L 201.152344 254.707031 L 204.738281 254.707031 L 204.738281 227.964844 C 215.242188 179.34375 226.039062 168.511719 274.585938 158.003906 L 302.945312 158.003906 Z M 302.945312 154.414062 " fill-opacity="1" fill-rule="nonzero"/></g></svg>